<svg xmlns="http://www.w3.org/2000/svg" width="930.64" height="272.8" viewBox="0 0 930.64 272.8"><path d="M 110.5 14.88 L 110.5 14.88 A 14.88 14.88 0 0 1 125.38 0 L 805.26 0 A 14.88 14.88 0 0 1 820.14 14.88 L 820.14 64.48 A 14.88 14.88 0 0 0 835.02 79.36 L 874.76 79.36 A 14.88 14.88 0 0 1 889.64 94.24 L 889.64 143.84 A 14.88 14.88 0 0 0 904.52 158.72 L 915.76 158.72 A 14.88 14.88 0 0 1 930.64 173.6 L 930.64 257.92 A 14.88 14.88 0 0 1 915.76 272.8 L 14.88 272.8 A 14.88 14.88 0 0 1 0 257.92 L 0 173.6 A 14.88 14.88 0 0 1 14.88 158.72 L 26.12 158.72 A 14.88 14.88 0 0 0 41 143.84 L 41 94.24 A 14.88 14.88 0 0 1 55.88 79.36 L 95.62 79.36 A 14.88 14.88 0 0 0 110.5 64.48 Z" fill="#000000"/></svg>